<?xml version="1.0" standalone="no"?>
<!DOCTYPE svg PUBLIC "-//W3C//DTD SVG 20010904//EN"
 "http://www.w3.org/TR/2001/REC-SVG-20010904/DTD/svg10.dtd">
<svg version="1.0" xmlns="http://www.w3.org/2000/svg"
 width="1288.000000pt" height="1288.000000pt" viewBox="0 0 1288.000000 1288.000000"
 preserveAspectRatio="xMidYMid meet">
<metadata>
Created by potrace 1.14, written by Peter Selinger 2001-2017
</metadata>
<g transform="translate(0.000000,1288.000000) scale(0.100000,-0.100000)"
fill="#000000" stroke="none">
<path d="M4312 6147 c-15 -5 -45 -10 -67 -11 -22 -2 -41 -5 -42 -6 -2 -1 -11
-4 -20 -5 -36 -5 -63 -18 -63 -29 0 -6 -5 -4 -10 4 -7 11 -10 11 -10 2 0 -7
-4 -11 -9 -8 -5 3 -23 -1 -40 -10 -17 -8 -35 -13 -41 -9 -5 3 -10 1 -10 -4 0
-6 -12 -11 -26 -11 -14 0 -23 -4 -20 -9 5 -8 -58 -27 -76 -23 -5 1 -8 -2 -8
-7 0 -5 -16 -15 -35 -22 -19 -7 -35 -17 -35 -22 0 -4 -4 -5 -10 -2 -5 3 -10 1
-10 -5 0 -6 -4 -9 -9 -5 -5 3 -12 1 -16 -5 -4 -6 -10 -8 -15 -5 -4 3 -11 -2
-14 -11 -3 -8 -10 -12 -16 -9 -5 3 -10 1 -10 -5 0 -6 -5 -8 -10 -5 -6 3 -13 0
-16 -9 -3 -8 -12 -12 -20 -9 -8 3 -14 1 -14 -5 0 -5 -11 -13 -25 -16 -14 -4
-25 -11 -25 -17 0 -6 -4 -8 -9 -4 -6 3 -15 -4 -21 -15 -6 -11 -15 -18 -20 -15
-13 8 -52 -19 -43 -29 4 -4 1 -4 -8 -1 -8 3 -26 -3 -38 -14 -13 -12 -28 -18
-32 -15 -5 3 -9 1 -9 -5 0 -6 -14 -18 -32 -27 -17 -9 -40 -25 -52 -35 -11 -11
-26 -17 -34 -14 -7 2 -11 1 -9 -3 6 -9 -19 -33 -27 -25 -3 4 -6 1 -6 -5 0 -7
-5 -12 -11 -12 -6 0 -17 -6 -24 -12 -35 -31 -45 -38 -45 -31 0 4 -5 0 -11 -9
-5 -10 -17 -18 -25 -18 -8 0 -12 -4 -9 -10 3 -6 -1 -7 -9 -4 -11 4 -16 0 -16
-12 0 -9 -3 -15 -6 -11 -6 5 -15 0 -49 -31 -8 -7 -15 -11 -15 -7 0 3 -12 -7
-26 -22 -14 -15 -22 -21 -19 -13 4 8 -4 2 -19 -14 -14 -16 -26 -27 -26 -23 0
6 -39 -25 -80 -65 -16 -15 -31 -24 -34 -21 -3 3 -17 -9 -32 -26 -15 -18 -33
-30 -40 -27 -8 3 -13 2 -12 -2 3 -7 -49 -62 -58 -62 -5 0 -21 -14 -94 -81 -16
-15 -36 -29 -45 -32 -8 -4 -15 -11 -15 -17 0 -5 -7 -10 -16 -10 -8 0 -12 -4
-9 -10 3 -5 2 -10 -2 -10 -8 0 -42 -27 -126 -102 -17 -16 -35 -28 -39 -28 -5
0 -6 -4 -3 -10 3 -5 1 -10 -5 -10 -6 0 -25 -16 -44 -35 -18 -19 -36 -31 -40
-28 -3 4 -6 -2 -6 -12 0 -10 -3 -16 -6 -12 -4 3 -37 -25 -74 -64 -37 -38 -73
-69 -79 -69 -7 0 -10 -4 -6 -9 3 -5 -4 -12 -15 -16 -11 -3 -19 -11 -17 -18 1
-6 -4 -11 -10 -12 -7 0 -12 -3 -10 -6 3 -8 -30 -39 -43 -39 -6 0 -8 -4 -5 -10
3 -5 2 -10 -4 -10 -14 0 -60 -47 -53 -54 3 -3 -2 -6 -12 -6 -9 0 -14 -4 -11
-10 3 -5 3 -10 -2 -10 -13 0 -102 -88 -95 -94 3 -3 -3 -6 -13 -6 -10 0 -15 -3
-12 -7 4 -3 -7 -16 -23 -28 -16 -12 -27 -24 -24 -28 3 -3 -4 -8 -15 -12 -12
-3 -19 -11 -16 -16 4 -5 -2 -9 -11 -9 -10 0 -15 -2 -12 -5 7 -7 -123 -141
-133 -138 -5 2 -5 -5 -2 -15 3 -9 3 -14 -2 -10 -4 4 -15 -1 -24 -11 -9 -11
-29 -35 -45 -55 -16 -19 -33 -33 -37 -30 -5 3 -6 -1 -4 -9 3 -7 -5 -19 -19
-27 -14 -7 -23 -16 -21 -20 2 -4 -6 -16 -18 -27 -12 -11 -38 -40 -57 -63 -19
-24 -54 -63 -77 -87 -24 -24 -43 -47 -43 -50 0 -4 -12 -18 -27 -30 -14 -13
-23 -23 -19 -23 4 0 -9 -16 -28 -35 -20 -19 -33 -35 -30 -35 4 0 -5 -11 -20
-25 -15 -14 -24 -25 -21 -25 3 0 -12 -19 -34 -42 -23 -23 -39 -43 -37 -46 2
-2 -9 -16 -25 -31 -16 -16 -29 -33 -29 -40 0 -6 -4 -11 -10 -11 -5 0 -10 -7
-10 -16 0 -8 -4 -12 -10 -9 -5 3 -10 2 -10 -3 0 -5 -12 -25 -27 -44 -16 -20
-34 -45 -42 -56 -8 -12 -18 -19 -22 -16 -4 2 -5 -6 -2 -18 3 -13 2 -20 -2 -16
-5 5 -24 -16 -43 -45 -20 -28 -41 -56 -49 -60 -7 -5 -11 -12 -8 -18 4 -5 1 -9
-5 -9 -6 0 -9 -4 -6 -9 3 -5 -1 -11 -9 -15 -8 -3 -15 -12 -15 -21 0 -8 -4 -15
-8 -15 -8 0 -36 -50 -33 -58 1 -1 -3 -8 -9 -15 -41 -48 -49 -61 -44 -68 3 -5
0 -9 -5 -9 -6 0 -11 -6 -11 -14 0 -7 -7 -19 -15 -26 -8 -7 -12 -16 -9 -21 3
-5 1 -9 -4 -9 -6 0 -15 -13 -21 -30 -5 -16 -14 -30 -20 -30 -5 0 -8 -8 -7 -17
2 -10 -3 -24 -11 -31 -7 -8 -11 -18 -8 -23 4 -5 1 -9 -4 -9 -6 0 -11 -7 -11
-15 0 -8 -9 -30 -20 -50 -11 -20 -20 -42 -20 -50 0 -8 -4 -15 -10 -15 -5 0 -9
-3 -8 -8 3 -9 -40 -140 -53 -165 -5 -10 -7 -22 -4 -27 4 -6 1 -10 -6 -10 -7 0
-9 -9 -6 -22 4 -12 2 -27 -3 -33 -11 -13 -24 -71 -23 -107 0 -16 -3 -28 -7
-28 -4 0 -7 -6 -8 -12 0 -7 -2 -29 -4 -48 -2 -19 -7 -41 -11 -47 -5 -8 -3 -13
5 -13 8 0 9 -3 3 -8 -11 -8 -15 -232 -4 -232 4 0 6 -20 6 -44 -1 -24 1 -42 6
-39 4 2 7 -9 7 -26 0 -16 5 -33 11 -37 8 -4 7 -9 -2 -15 -10 -6 -11 -9 -1 -9
6 0 12 -5 12 -12 0 -25 43 -147 50 -143 4 3 8 -6 8 -18 0 -19 30 -75 60 -112
4 -5 10 -14 11 -20 5 -15 34 -58 48 -73 7 -8 11 -18 7 -23 -3 -5 -2 -8 3 -7 9
3 73 -61 73 -73 0 -5 7 -9 16 -9 8 0 13 -4 9 -9 -3 -5 4 -12 15 -16 11 -3 20
-13 20 -21 0 -8 6 -14 13 -14 7 0 19 -9 27 -20 8 -11 19 -20 24 -20 5 0 17
-10 27 -22 11 -11 19 -17 19 -13 0 4 9 0 20 -10 11 -10 20 -14 20 -10 0 4 8
-1 18 -13 10 -11 25 -22 32 -24 14 -3 21 -7 55 -36 8 -7 15 -10 15 -7 0 3 24
-7 52 -22 29 -15 56 -26 61 -25 4 1 7 -3 7 -8 0 -6 6 -10 13 -10 7 0 29 -8 50
-19 20 -10 35 -15 32 -11 -3 5 6 3 19 -3 13 -7 23 -14 21 -17 -2 -3 13 -6 32
-7 19 -1 40 -7 48 -13 12 -10 42 -17 82 -19 6 -1 19 -8 27 -17 9 -9 16 -11 16
-4 0 6 4 8 10 5 5 -3 19 -8 30 -11 11 -2 30 -6 41 -9 12 -2 24 -7 27 -10 3 -2
11 0 19 6 8 7 13 7 13 2 0 -6 21 -13 48 -17 26 -4 67 -9 92 -13 25 -3 68 -6
95 -7 28 -1 53 -5 56 -10 4 -4 53 -9 110 -10 57 0 107 -5 111 -11 5 -6 8 -6 8
2 0 11 24 12 35 1 3 -3 22 -2 41 2 21 5 37 4 40 -2 4 -6 10 -5 15 3 6 10 9 10
9 2 0 -9 7 -10 25 -3 17 7 25 6 25 -1 0 -8 5 -7 15 1 8 7 15 8 15 3 0 -5 9 -9
20 -9 11 0 20 4 20 8 0 5 10 4 21 -3 16 -8 20 -8 14 1 -6 9 -2 9 14 1 11 -7
21 -8 21 -3 0 4 43 8 96 7 53 0 97 2 99 5 2 3 40 7 85 8 44 2 95 5 113 8 18 3
50 6 72 7 22 1 43 7 47 12 5 6 8 6 8 -2 0 -12 17 -12 37 0 6 4 14 1 16 -5 4
-10 6 -10 6 0 1 7 17 12 44 12 24 0 47 3 51 7 4 4 28 8 54 10 61 3 119 10 162
18 19 4 42 7 50 7 8 1 21 5 28 11 8 6 12 5 12 -4 0 -9 3 -10 8 -4 4 6 25 10
47 10 22 -1 45 1 50 4 12 6 31 11 65 16 14 1 25 4 25 5 0 1 16 3 35 4 19 2 49
5 65 9 52 11 89 18 120 21 17 2 50 8 75 14 25 6 63 14 85 17 76 13 120 22 120
25 0 3 59 12 88 13 15 1 27 6 27 11 0 5 3 7 6 4 3 -3 29 0 57 8 29 7 63 15 77
18 14 2 59 12 100 22 41 9 81 17 88 17 6 0 12 4 12 8 0 4 9 6 20 4 11 -2 22 0
25 5 3 4 16 7 30 5 14 -1 25 2 25 7 0 5 5 6 10 3 6 -3 10 -3 10 2 0 4 12 9 28
10 32 3 61 8 82 15 37 13 257 67 288 70 6 1 12 5 12 10 0 5 4 7 9 3 5 -3 13 0
17 6 4 8 9 7 15 -2 7 -12 9 -12 9 0 0 7 6 11 15 8 8 -4 17 -2 20 4 4 5 12 9
18 8 11 -2 110 24 147 38 8 3 23 5 33 4 9 -1 17 2 17 6 0 8 15 12 58 15 6 1
12 5 12 9 0 4 9 6 20 4 11 -2 20 0 20 6 0 5 14 9 30 9 17 0 30 4 30 9 0 5 8 8
18 6 9 -1 23 2 30 8 7 5 15 7 18 4 3 -3 17 1 31 8 14 7 31 11 38 9 7 -3 16 0
20 5 3 6 11 9 16 6 5 -4 9 -1 9 5 0 6 4 9 9 6 5 -3 25 1 45 9 20 9 41 13 46
10 5 -3 11 -1 15 5 3 5 15 10 26 10 13 0 18 4 13 12 -4 7 -3 8 4 4 18 -11 94
13 85 27 -5 8 -2 8 9 -1 12 -9 18 -10 23 -2 4 6 13 9 21 6 8 -3 14 0 14 6 0 6
3 9 6 6 3 -4 20 0 39 7 18 8 35 11 39 8 3 -4 6 0 6 7 0 7 3 11 6 7 3 -3 25 1
47 10 37 13 55 17 101 26 6 1 13 4 16 7 3 3 16 11 29 18 19 11 22 11 15 0 -6
-10 -4 -10 9 1 9 7 17 10 17 6 0 -4 7 -1 17 6 9 8 18 13 20 12 1 -2 4 -3 6 -2
17 5 45 11 59 12 9 1 14 5 12 9 -8 12 31 9 43 -3 8 -8 13 -7 18 2 5 8 4 10 -3
5 -7 -4 -12 -2 -12 3 0 10 14 15 33 12 4 0 7 4 7 10 0 6 9 9 20 6 11 -3 20 -1
20 5 0 5 5 6 10 3 6 -3 10 -1 10 5 0 6 5 8 10 5 6 -3 10 -2 10 4 0 5 9 8 20 6
11 -2 20 0 20 4 0 4 7 8 15 9 8 1 22 3 30 4 8 1 15 5 15 10 0 5 5 6 10 3 6 -3
10 -2 10 3 0 5 7 9 15 10 8 1 22 3 30 4 8 1 15 5 15 10 0 5 4 7 8 4 4 -2 26 4
49 14 23 10 44 16 47 12 3 -3 6 1 6 8 0 7 3 11 6 7 4 -3 23 1 43 9 40 18 42
18 89 29 17 4 32 11 32 15 0 3 7 7 15 8 8 1 22 3 30 4 8 1 15 5 15 10 0 4 11
8 25 8 14 0 25 4 25 9 0 5 11 8 25 7 13 -2 22 1 19 5 -5 8 10 13 29 10 4 0 7
4 7 11 0 6 3 9 6 5 3 -3 26 3 50 13 24 11 44 17 44 15 0 -3 25 6 56 20 31 14
60 22 65 19 5 -3 9 0 9 5 0 6 9 11 19 11 11 0 22 4 26 9 3 5 19 12 35 16 17 4
30 10 30 15 0 5 9 7 20 5 11 -2 20 0 20 6 0 5 3 9 8 8 4 -1 18 2 32 7 14 4 27
6 29 5 2 -2 7 2 11 9 4 6 13 13 21 14 65 15 81 20 85 30 3 7 16 13 31 14 15 1
30 7 34 13 4 7 11 9 17 5 6 -3 13 -2 17 4 4 6 11 8 16 5 5 -4 9 -1 9 5 0 6 5
8 10 5 6 -3 10 -1 10 6 0 7 3 9 7 6 3 -4 15 1 26 10 11 10 17 12 13 6 -5 -9
-2 -11 8 -7 9 3 16 10 16 15 0 5 11 9 25 9 14 0 25 5 25 12 0 6 3 9 6 5 8 -8
64 13 64 24 0 5 11 9 24 9 14 0 28 5 31 11 4 5 12 8 18 6 7 -2 18 2 25 10 8 7
18 11 23 8 5 -4 9 -1 9 4 0 6 9 11 19 11 11 0 23 5 26 11 4 6 14 8 22 5 8 -3
11 -1 8 4 -4 6 7 13 24 16 17 4 31 10 31 15 0 4 9 6 20 4 11 -2 18 0 16 4 -3
4 6 13 19 19 19 9 25 9 25 -1 0 -8 4 -7 10 3 8 13 10 12 11 -5 1 -11 1 -23 0
-28 0 -4 3 -7 7 -7 5 0 8 -14 7 -30 -1 -17 1 -32 4 -35 4 -2 6 -26 6 -54 0
-28 3 -51 8 -51 4 0 6 -20 4 -45 -3 -35 0 -45 12 -46 11 0 12 -2 3 -6 -6 -2
-9 -9 -6 -14 3 -6 8 -29 10 -52 2 -23 6 -52 8 -64 7 -35 20 -116 22 -143 1
-14 3 -26 4 -27 5 -5 8 -23 9 -59 0 -19 5 -33 9 -30 4 3 9 -12 9 -32 2 -52 7
-85 15 -98 4 -6 8 -27 10 -47 1 -21 5 -37 9 -37 4 0 6 -11 4 -25 -1 -14 2 -28
7 -31 4 -3 6 -10 3 -15 -4 -5 -1 -9 5 -9 7 0 10 -7 7 -15 -4 -8 -2 -17 4 -21
6 -3 8 -12 5 -20 -3 -8 -1 -14 4 -14 6 0 9 -3 9 -7 -1 -5 -1 -21 0 -38 1 -23
3 -27 11 -15 9 14 14 7 11 -13 -1 -5 2 -6 7 -3 5 3 10 22 11 43 1 21 3 44 3
51 1 6 4 12 7 12 4 0 7 30 8 68 3 94 14 176 25 183 6 4 5 8 -3 11 -8 3 -10 9
-4 19 12 17 14 565 3 596 -5 14 -4 23 3 23 6 0 7 5 3 11 -3 6 -8 61 -11 121
-4 97 -2 112 14 127 21 20 79 42 87 34 3 -4 6 -1 6 5 0 9 22 21 53 28 4 1 10
3 15 4 4 1 11 2 15 1 5 -1 6 3 2 9 -5 9 8 14 20 8 2 -2 11 6 19 17 12 15 15
16 16 5 0 -10 3 -11 8 -4 8 12 43 28 55 26 4 -1 7 3 7 9 0 5 4 8 9 5 5 -3 14
1 21 9 7 8 16 12 21 9 5 -3 9 0 9 6 0 6 4 9 9 5 5 -3 16 1 24 9 8 8 17 12 21
9 3 -4 6 -1 6 6 0 7 4 10 8 7 12 -7 183 80 174 89 -4 5 -1 5 5 1 13 -7 71 20
85 39 4 6 8 6 8 1 0 -4 11 -1 25 8 14 9 25 13 25 10 0 -4 8 0 18 9 10 10 22
14 25 10 4 -3 7 0 7 7 0 7 3 11 6 7 4 -3 13 0 21 8 8 8 23 15 33 15 11 0 24 8
29 18 6 9 11 14 11 9 0 -4 13 -1 30 8 16 8 32 15 35 15 13 -1 65 32 65 41 0 6
5 7 10 4 6 -4 17 -2 24 4 29 25 108 61 118 55 6 -4 8 -3 5 3 -8 13 41 36 55
27 6 -4 8 -2 5 3 -7 11 50 40 66 35 5 -1 6 2 3 7 -4 5 9 14 28 21 19 6 40 18
47 26 7 8 18 13 26 10 8 -3 11 -1 8 4 -6 9 8 14 28 11 4 0 7 4 7 9 0 6 6 10
13 10 7 0 24 10 37 23 14 12 26 21 27 20 7 -7 23 -1 37 13 9 9 23 17 32 18 9
1 19 8 23 15 5 7 11 13 14 13 19 0 47 12 47 20 0 5 5 6 10 3 6 -3 10 -2 10 4
0 6 11 13 25 17 14 3 22 10 19 15 -3 5 4 9 15 9 11 0 27 7 35 16 9 8 21 12 27
8 8 -4 9 -3 5 4 -4 7 -2 12 4 12 6 0 18 7 27 16 9 8 22 13 30 10 8 -3 12 -2
10 2 -3 4 1 13 9 20 8 7 14 10 14 8 0 -3 25 10 55 29 30 20 55 32 55 28 0 -4
5 -1 10 7 5 8 14 15 20 15 6 0 15 7 20 15 5 8 10 12 10 8 0 -4 8 -1 18 7 9 8
21 15 25 15 4 -1 17 9 28 22 11 13 18 16 14 8 -4 -10 -2 -9 8 2 8 10 16 15 19
13 3 -3 13 4 23 15 10 11 24 20 31 20 7 0 27 13 45 30 18 16 36 27 41 24 4 -3
8 -1 8 5 0 6 11 13 25 17 14 3 22 10 19 15 -3 5 1 9 9 9 8 0 27 11 43 25 16
14 33 25 37 25 14 0 36 27 29 35 -4 5 -2 5 4 2 7 -4 23 2 36 13 14 11 28 16
32 13 3 -3 6 -1 6 4 0 6 20 24 45 40 25 15 45 31 45 36 0 4 7 7 15 7 8 0 15 4
15 10 0 5 11 12 25 16 14 4 23 9 21 12 -3 3 11 17 32 31 20 14 37 23 37 21 0
-2 14 9 31 25 41 39 95 85 100 85 6 0 45 33 63 53 8 9 20 17 26 17 14 0 45 37
38 44 -4 3 3 6 15 6 13 0 22 6 22 16 0 8 4 13 9 10 4 -3 16 3 26 14 10 11 23
17 29 13 6 -3 8 -3 4 2 -11 11 12 36 25 28 6 -3 7 -1 3 6 -4 6 0 14 8 17 9 3
13 10 10 15 -3 5 2 9 10 9 8 0 20 8 25 18 6 9 11 13 11 8 0 -6 11 5 25 24 14
19 25 31 25 27 0 -4 24 17 53 46 30 28 52 55 51 58 -2 3 8 12 22 19 13 8 22
20 20 27 -3 7 1 13 10 13 8 0 17 7 20 15 4 8 13 15 22 15 8 0 13 3 9 6 -3 4
-1 12 6 19 7 7 28 32 47 55 19 23 41 48 48 56 7 8 11 14 8 14 -3 0 8 14 25 31
16 16 27 34 24 39 -3 4 2 10 10 14 8 3 15 12 15 21 0 8 6 15 13 16 6 0 30 36
51 79 22 44 44 76 49 73 6 -3 7 -1 3 6 -4 6 -2 18 4 26 7 8 9 15 4 15 -5 0 -1
5 9 11 9 6 15 14 12 19 -3 5 1 20 10 33 8 13 12 27 8 30 -3 4 -1 7 6 7 8 0 11
8 8 20 -3 10 -1 20 5 22 8 3 15 22 17 51 1 5 4 6 9 4 4 -3 8 10 8 28 1 19 5
42 9 52 11 25 15 63 18 176 2 53 0 97 -4 97 -4 0 -6 7 -5 17 2 9 -5 32 -15 52
-9 20 -15 39 -13 42 2 4 -3 10 -12 13 -9 3 -14 13 -11 20 3 8 -1 17 -9 20 -8
3 -14 12 -14 19 0 16 -117 137 -132 137 -6 0 -26 12 -45 26 -35 26 -73 39 -73
24 0 -19 13 -40 21 -34 5 3 6 -2 3 -10 -3 -9 -1 -16 6 -16 6 0 8 -4 5 -10 -3
-5 -1 -10 4 -10 6 0 11 -6 11 -14 0 -8 6 -17 13 -19 9 -4 9 -6 0 -6 -7 -1 -20
8 -30 18 -10 11 -31 23 -48 27 -16 4 -33 12 -37 18 -5 8 -10 8 -18 0 -13 -13
14 -92 38 -111 9 -7 12 -13 7 -13 -4 0 0 -9 10 -20 10 -11 15 -20 10 -20 -4 0
4 -15 18 -34 15 -18 23 -36 20 -40 -4 -3 -1 -6 6 -6 8 0 11 -8 8 -19 -3 -12 1
-22 10 -25 8 -3 12 -10 8 -15 -3 -6 2 -14 10 -18 12 -7 16 -30 17 -104 0 -53
-4 -105 -10 -116 -6 -11 -9 -23 -6 -26 3 -3 2 -12 -2 -19 -5 -7 -10 -30 -11
-51 -2 -21 -12 -51 -23 -67 -11 -15 -20 -31 -20 -36 0 -4 -16 -26 -35 -49 -19
-23 -32 -45 -29 -47 2 -3 -3 -11 -13 -19 -14 -12 -16 -12 -8 0 5 10 4 12 -4 7
-6 -4 -9 -11 -6 -15 7 -12 -40 -53 -50 -44 -4 5 -5 3 -1 -4 3 -6 -2 -16 -11
-22 -10 -6 -14 -11 -9 -11 11 0 -56 -60 -67 -60 -5 0 -6 -3 -4 -7 2 -5 -6 -18
-19 -31 -13 -12 -24 -19 -24 -15 0 4 -8 -4 -18 -20 -10 -15 -21 -25 -24 -22
-2 3 -11 -6 -18 -20 -7 -14 -18 -25 -24 -25 -6 0 -26 -17 -45 -37 -19 -21 -30
-31 -26 -23 5 8 -7 -1 -27 -20 -40 -40 -78 -72 -78 -66 0 3 -13 -8 -28 -22
-15 -15 -38 -34 -51 -42 -25 -16 -63 -45 -90 -71 -10 -8 -23 -13 -31 -11 -7 3
-10 0 -6 -7 4 -6 3 -11 -3 -11 -5 0 -16 -7 -24 -15 -8 -8 -21 -16 -28 -17 -8
-2 -20 -11 -27 -21 -7 -9 -17 -15 -22 -12 -4 3 -10 -2 -14 -10 -3 -8 -15 -15
-26 -15 -12 0 -19 -3 -17 -7 6 -9 -13 -27 -33 -31 -7 -2 -21 -11 -29 -20 -9
-9 -23 -18 -31 -20 -8 -2 -18 -9 -22 -15 -4 -7 -8 -7 -8 -2 0 6 -7 1 -15 -9
-8 -11 -15 -17 -15 -13 0 4 -9 0 -19 -10 -11 -10 -42 -29 -68 -43 -26 -14 -53
-31 -58 -38 -6 -7 -20 -14 -32 -15 -12 0 -20 -4 -18 -7 1 -3 -3 -10 -10 -17
-11 -10 -15 -10 -18 0 -4 9 -6 9 -6 0 -1 -13 -60 -49 -73 -45 -5 1 -8 -3 -8
-8 0 -6 -12 -16 -27 -22 -16 -7 -40 -20 -55 -31 -16 -10 -28 -15 -28 -12 0 4
-7 -1 -16 -9 -8 -9 -22 -16 -30 -16 -8 0 -14 -5 -14 -12 0 -6 -3 -9 -6 -5 -4
3 -21 -5 -39 -18 -17 -14 -39 -25 -48 -25 -10 0 -17 -5 -17 -11 0 -6 -6 -9
-14 -6 -8 3 -17 -1 -20 -10 -4 -9 -9 -13 -12 -10 -4 3 -15 -3 -27 -14 -11 -10
-29 -19 -39 -19 -10 0 -18 -5 -18 -11 0 -5 -4 -8 -9 -5 -5 3 -14 -1 -21 -10
-7 -8 -19 -13 -27 -10 -7 3 -13 1 -13 -4 0 -11 -95 -60 -116 -60 -9 0 -12 -4
-9 -10 3 -5 1 -10 -4 -10 -6 0 -34 -11 -63 -25 -28 -14 -57 -25 -64 -25 -7 0
-14 -5 -16 -11 -2 -5 -12 -11 -21 -13 -10 -1 -23 -9 -28 -17 -5 -8 -9 -10 -9
-6 0 4 -10 2 -22 -5 -13 -7 -26 -11 -30 -10 -5 1 -8 -3 -8 -9 0 -5 -4 -7 -10
-4 -5 3 -10 1 -10 -5 0 -6 -5 -8 -10 -5 -6 3 -13 -1 -16 -9 -3 -9 -10 -16 -16
-16 -5 0 -6 6 -2 13 4 6 -4 2 -18 -11 -13 -12 -28 -19 -31 -15 -4 3 -7 0 -7
-7 0 -7 -3 -10 -6 -7 -4 3 -16 1 -28 -5 -11 -7 -24 -11 -28 -10 -5 1 -8 -3 -8
-8 0 -5 -3 -9 -7 -8 -5 1 -37 -12 -73 -29 -35 -18 -68 -29 -72 -27 -5 3 -8 0
-8 -5 0 -6 -7 -11 -15 -11 -8 0 -15 -5 -15 -12 0 -6 -3 -8 -6 -5 -4 3 -16 1
-28 -5 -11 -7 -25 -12 -29 -13 -4 0 -11 -4 -15 -10 -4 -5 -18 -11 -32 -13 -13
-1 -28 -9 -33 -17 -4 -9 -12 -13 -17 -10 -4 3 -21 -2 -36 -10 -16 -8 -35 -15
-42 -15 -7 0 -11 -4 -8 -9 4 -5 -5 -8 -18 -7 -14 2 -27 -3 -30 -11 -3 -8 -10
-12 -15 -9 -5 4 -16 0 -24 -8 -8 -8 -23 -16 -33 -18 -10 -2 -22 -7 -25 -11 -3
-4 -16 -9 -27 -10 -12 -1 -22 -6 -22 -11 0 -5 -3 -7 -6 -4 -3 4 -17 0 -31 -7
-15 -8 -30 -12 -35 -9 -4 3 -8 0 -8 -5 0 -6 -9 -11 -20 -11 -11 0 -20 -5 -20
-12 0 -6 -3 -8 -6 -5 -4 3 -16 0 -28 -8 -11 -8 -28 -15 -38 -15 -10 0 -18 -5
-18 -11 0 -8 -6 -7 -17 2 -9 8 -14 9 -10 3 6 -11 -19 -29 -35 -26 -5 1 -8 -2
-8 -7 0 -6 -9 -8 -20 -6 -12 2 -23 -2 -27 -10 -3 -8 -9 -12 -14 -9 -5 3 -15 2
-21 -3 -7 -4 -15 -8 -18 -9 -37 -11 -50 -18 -50 -26 0 -5 -6 -8 -12 -7 -19 3
-78 -22 -78 -32 0 -5 -5 -9 -11 -9 -5 0 -7 5 -4 11 4 6 -2 5 -14 -3 -12 -7
-21 -16 -21 -21 0 -4 -4 -5 -10 -2 -5 3 -23 -1 -39 -10 -28 -14 -30 -14 -37 7
-3 12 -8 53 -11 92 -5 91 -11 161 -13 161 -4 0 -10 45 -12 98 -1 31 -5 57 -8
57 -4 0 -6 23 -6 50 1 28 -2 50 -7 50 -4 0 -6 3 -3 8 2 4 -1 37 -8 72 -7 36
-11 78 -11 92 1 15 -2 25 -6 22 -5 -2 -8 15 -7 39 0 24 -5 54 -12 67 -10 18
-9 21 1 15 8 -5 10 -4 5 3 -8 13 -12 33 -22 96 -3 22 -11 49 -16 61 -6 11 -11
21 -10 23 1 1 2 3 1 5 0 1 -2 18 -4 37 -4 35 -12 75 -15 75 -3 0 -11 41 -13
67 -1 15 -6 30 -10 34 -4 4 -7 20 -7 36 0 15 -4 28 -8 28 -4 0 -9 10 -9 23 -1
20 -8 55 -14 67 -1 3 -3 10 -4 15 -6 37 -29 102 -43 124 -10 14 -12 22 -4 18
6 -5 12 -4 12 2 0 6 -5 11 -10 11 -6 0 -10 6 -9 13 1 6 -1 21 -5 32 -5 11 -10
27 -14 35 -3 8 -6 17 -6 20 -9 38 -32 100 -37 100 -3 0 -6 7 -7 15 -1 8 -3 22
-4 30 -1 8 -5 15 -10 15 -5 0 -6 5 -3 10 3 6 1 10 -4 10 -6 0 -10 3 -9 8 1 4
-5 21 -12 37 -7 17 -12 34 -11 38 1 5 -9 23 -21 40 -13 18 -23 34 -22 37 2 13
-9 40 -18 40 -5 0 -6 5 -3 10 3 6 1 10 -6 10 -7 0 -10 3 -6 6 3 4 -5 22 -18
42 -13 19 -21 40 -18 45 3 6 1 7 -5 3 -11 -6 -16 6 -13 27 0 4 -4 7 -9 7 -6 0
-10 7 -10 15 0 8 -4 15 -8 15 -5 0 -15 12 -23 27 -8 15 -24 38 -36 51 -13 14
-20 29 -16 35 3 6 1 7 -5 3 -7 -4 -12 -3 -12 2 0 4 -20 30 -45 58 -24 27 -44
52 -45 57 0 4 -7 7 -15 7 -8 0 -15 6 -15 14 0 7 -14 19 -31 26 -21 9 -28 18
-24 29 3 8 3 12 -1 8 -4 -4 -23 5 -42 20 -20 15 -32 20 -28 12 5 -9 2 -8 -6 2
-7 9 -23 19 -36 23 -12 4 -22 11 -22 16 0 6 -14 13 -50 24 -3 1 -11 5 -17 9
-7 5 -13 5 -13 0 0 -4 -4 -2 -8 4 -5 7 -20 14 -35 15 -15 1 -27 6 -27 11 0 4
-8 7 -17 6 -10 -1 -25 1 -34 5 -8 4 -36 8 -62 9 -26 1 -47 4 -47 7 0 13 -219
-4 -230 -18 -3 -4 -23 -8 -45 -10 -22 -2 -53 -10 -69 -18 -16 -8 -36 -14 -45
-14 -9 0 -27 -7 -39 -16 -12 -8 -22 -12 -22 -8 0 3 -6 1 -13 -5 -8 -6 -17 -8
-20 -4 -4 3 -7 2 -7 -4 0 -6 -7 -14 -16 -17 -9 -3 -12 -2 -8 5 5 9 -33 -8 -46
-21 -16 -16 -52 -30 -62 -24 -7 5 -8 2 -3 -6 6 -10 4 -12 -9 -7 -9 4 -15 3
-12 -1 3 -5 -21 -22 -52 -38 -31 -16 -64 -37 -73 -46 -9 -10 -23 -18 -32 -18
-8 0 -18 -7 -21 -16 -3 -8 -10 -12 -16 -9 -5 3 -10 2 -10 -4 0 -5 -12 -16 -27
-24 -16 -7 -27 -19 -25 -27 3 -11 0 -11 -14 1 -12 9 -15 9 -10 2 4 -7 3 -13
-2 -13 -4 0 -18 -9 -30 -20 -14 -14 -22 -16 -23 -8 0 7 -4 3 -9 -9 -5 -13 -16
-23 -25 -23 -8 0 -15 -4 -15 -10 0 -5 -7 -10 -15 -10 -9 0 -12 -6 -8 -17 4
-11 3 -14 -5 -9 -7 4 -12 2 -12 -5 0 -7 -3 -10 -6 -6 -9 9 -44 -25 -37 -36 3
-6 1 -7 -5 -3 -6 3 -22 -6 -36 -21 -14 -15 -26 -25 -26 -21 0 4 -48 -40 -106
-97 -58 -58 -110 -105 -115 -105 -5 0 -9 -4 -9 -9 0 -13 -88 -100 -95 -93 -3
3 -5 1 -5 -5 0 -11 -147 -163 -153 -157 -2 2 -10 -7 -17 -21 -7 -14 -20 -25
-28 -25 -9 0 -13 -3 -9 -6 7 -8 -17 -34 -32 -34 -6 0 -11 -4 -11 -8 0 -11 -85
-99 -124 -130 -16 -12 -25 -22 -21 -22 5 0 -5 -11 -21 -25 -16 -14 -32 -25
-36 -25 -5 0 -8 -8 -8 -17 0 -9 -3 -13 -6 -10 -4 3 -15 -5 -26 -18 -11 -14
-24 -23 -29 -19 -5 3 -8 0 -7 -7 2 -7 -8 -18 -22 -26 -14 -7 -21 -13 -17 -13
5 0 -5 -12 -22 -26 -17 -14 -54 -48 -82 -75 -28 -27 -54 -49 -58 -49 -16 0
-27 40 -27 92 1 32 -3 58 -8 58 -5 0 -3 6 3 14 8 9 8 16 2 20 -6 4 -7 14 -4
23 4 11 3 14 -5 9 -9 -5 -9 -1 -2 18 7 19 6 26 -3 26 -8 0 -7 4 3 10 13 9 13
10 0 10 -12 0 -13 2 -1 9 11 7 11 9 0 14 -8 3 -9 6 -4 6 6 1 9 18 7 42 -4 33
-2 40 9 33 12 -7 12 -5 0 9 -11 14 -11 17 0 17 9 0 10 3 3 8 -6 4 -10 18 -8
32 1 14 4 89 6 167 1 78 5 140 8 138 3 -2 5 37 5 87 0 49 3 92 8 95 4 2 4 10
0 16 -10 17 -11 67 -1 67 5 0 4 8 -1 18 -5 10 -6 24 -1 32 5 8 5 21 2 29 -4 9
-7 49 -7 89 0 39 -4 72 -9 72 -5 0 -3 6 3 14 9 11 9 15 -1 19 -11 4 -10 6 0 6
8 1 10 6 5 14 -4 6 -9 26 -10 42 0 17 -5 44 -11 60 -5 17 -8 38 -6 48 1 9 -2
17 -8 17 -6 0 -8 11 -6 25 3 14 2 25 -2 25 -12 0 -31 61 -23 73 3 5 1 7 -4 4
-10 -6 -27 27 -24 46 1 4 -4 7 -10 7 -5 0 -7 5 -4 10 3 6 1 10 -4 10 -6 0 -11
7 -11 15 0 8 -4 15 -8 15 -4 0 -16 14 -26 32 -22 36 -83 98 -97 98 -6 0 -7 5
-4 10 3 6 -1 10 -9 10 -9 0 -16 5 -16 11 0 5 -4 7 -10 4 -5 -3 -10 -2 -10 4 0
5 -21 20 -47 33 -27 13 -50 26 -53 29 -3 3 -13 5 -23 3 -9 -1 -15 2 -11 7 3 5
-4 9 -14 9 -11 0 -36 7 -56 15 -19 8 -39 14 -43 13 -5 -1 -26 2 -48 7 -52 11
-228 12 -263 2z m104 -775 c6 -4 12 -23 12 -42 1 -19 4 -46 8 -60 3 -14 5 -31
5 -37 -1 -7 -1 -23 -1 -35 0 -68 -1 -95 -4 -113 -2 -11 2 -26 8 -34 8 -11 8
-13 -1 -7 -15 8 -15 4 -15 -344 0 -129 3 -255 7 -280 3 -25 7 -78 8 -117 1
-40 6 -73 10 -73 5 0 5 -5 2 -10 -4 -6 -1 -43 6 -83 7 -40 12 -76 10 -81 -1
-5 1 -16 5 -25 4 -9 9 -23 10 -31 7 -42 16 -75 22 -84 4 -6 7 -18 7 -26 0 -8
4 -21 9 -28 4 -7 5 -20 2 -28 -3 -9 -1 -12 4 -9 6 3 11 1 11 -4 3 -21 4 -26
12 -38 5 -7 5 -18 1 -25 -4 -7 -3 -8 4 -4 8 5 12 -1 12 -14 0 -12 4 -18 10
-15 6 4 9 3 8 -2 -4 -13 23 -73 33 -73 5 0 9 -6 9 -14 0 -8 16 -30 36 -50 19
-19 33 -40 29 -46 -4 -6 1 -7 11 -3 12 4 15 3 10 -5 -4 -7 -3 -12 3 -12 6 0
22 -11 36 -25 14 -14 25 -22 25 -18 0 4 5 0 11 -9 5 -10 17 -18 24 -18 8 0 15
-4 15 -9 0 -8 37 -24 53 -22 4 1 7 -4 7 -10 0 -5 5 -7 10 -4 6 4 17 1 25 -5 8
-6 18 -9 23 -6 5 3 19 0 33 -7 33 -16 108 -13 184 7 6 1 25 6 43 10 17 4 32
12 32 16 0 5 7 7 16 3 9 -3 19 -1 23 5 3 6 13 12 21 14 8 2 21 9 28 16 8 7 18
10 23 7 5 -4 9 -1 9 4 0 6 3 10 8 10 19 -3 33 2 27 11 -3 6 0 10 8 10 8 0 26
9 41 21 14 11 26 17 26 13 0 -4 7 1 15 12 8 10 15 15 15 10 0 -4 9 2 20 15 10
13 19 20 20 15 0 -5 11 3 25 18 13 14 26 26 29 26 12 0 64 59 58 66 -4 4 -2 4
4 1 7 -4 44 24 85 63 40 39 76 70 80 70 4 0 11 9 14 20 4 11 11 18 16 15 5 -4
9 1 9 9 0 9 7 16 15 16 8 0 15 5 15 10 0 6 27 37 60 70 33 33 60 65 60 71 0 5
5 7 10 4 6 -3 10 -2 10 3 0 4 25 34 55 66 30 31 55 61 55 66 0 6 7 10 15 10 8
0 15 7 15 16 0 8 4 13 8 10 5 -3 16 8 26 25 9 16 22 27 27 24 5 -4 9 1 9 9 0
9 5 16 12 16 6 0 9 3 6 6 -3 3 12 23 33 45 22 22 46 51 55 64 9 14 20 22 25
19 5 -3 9 0 9 6 0 6 24 34 52 63 29 28 51 56 50 60 -1 5 7 11 18 14 11 3 17 9
15 14 -3 4 6 16 20 25 13 9 22 20 19 25 -3 5 -2 9 3 9 4 0 53 43 107 95 55 52
103 95 108 95 5 0 6 5 3 10 -3 6 1 10 9 10 9 0 16 7 16 15 0 8 3 14 8 13 4 -2
21 11 38 27 18 17 47 41 65 55 18 14 38 30 45 37 6 7 14 10 17 7 3 -3 8 4 12
15 3 12 10 19 15 16 5 -3 17 3 27 14 9 11 20 18 25 15 4 -3 8 0 8 7 0 7 3 10
6 6 3 -3 16 3 27 14 12 11 27 17 35 14 7 -2 15 2 18 10 4 8 10 12 15 9 5 -3 9
-1 9 4 0 10 69 38 105 44 11 2 23 8 27 13 5 6 8 5 8 -3 0 -9 5 -10 19 -3 21
12 131 10 131 -2 0 -4 6 -7 13 -6 18 3 65 -18 89 -41 12 -11 27 -20 33 -20 6
0 17 -9 25 -20 8 -11 19 -20 26 -20 6 0 22 -14 35 -32 13 -17 32 -39 42 -47 9
-9 17 -21 17 -27 0 -7 7 -14 15 -18 8 -3 15 -12 15 -21 0 -8 5 -15 10 -15 6 0
10 -7 10 -16 0 -8 5 -12 10 -9 6 3 11 1 11 -4 4 -29 19 -61 46 -97 12 -17 20
-34 16 -37 -3 -4 -2 -7 4 -7 5 0 16 -18 23 -40 7 -22 16 -40 21 -40 4 0 10
-12 15 -27 8 -32 7 -27 23 -70 7 -18 16 -33 20 -33 4 0 8 -7 9 -15 1 -8 3 -22
4 -30 1 -8 5 -15 10 -15 5 0 6 -4 3 -10 -3 -5 -1 -10 5 -10 6 0 8 -5 5 -10 -4
-6 -1 -17 5 -25 7 -8 9 -15 5 -15 -5 0 -1 -8 8 -17 8 -10 17 -31 18 -48 2 -16
6 -34 10 -40 15 -22 40 -115 34 -125 -3 -6 1 -13 9 -16 9 -3 13 -10 10 -15 -3
-6 -1 -16 5 -23 6 -7 9 -21 5 -30 -3 -9 -2 -16 3 -16 5 0 10 -6 11 -12 8 -59
15 -88 22 -88 5 0 7 -11 5 -25 -1 -14 2 -25 8 -25 5 0 7 -9 4 -20 -3 -12 1
-24 11 -30 14 -8 14 -9 2 -10 -13 0 -13 -1 0 -10 8 -5 11 -10 6 -10 -5 0 -2
-8 5 -17 12 -14 12 -16 0 -8 -11 6 -12 5 -5 -6 9 -14 13 -29 16 -61 1 -10 5
-18 8 -18 6 0 11 -32 14 -82 0 -14 4 -24 8 -21 5 2 8 -10 8 -26 0 -17 5 -31
11 -31 8 0 8 -4 0 -14 -7 -8 -8 -16 -3 -18 8 -2 18 -53 21 -101 1 -5 4 -6 9
-4 4 3 7 -15 6 -39 0 -24 2 -44 6 -44 3 0 7 -11 8 -26 1 -14 7 -34 13 -46 8
-16 8 -19 -1 -13 -9 5 -9 3 -2 -11 5 -11 8 -29 7 -41 -1 -12 2 -20 7 -17 4 3
6 -9 4 -25 -2 -17 -1 -33 2 -36 7 -7 12 -32 14 -62 0 -13 6 -23 12 -23 6 0 4
-5 -4 -10 -8 -5 -10 -10 -5 -10 6 0 12 -12 13 -27 1 -16 4 -44 7 -63 4 -35
-10 -64 -26 -54 -5 3 -9 1 -9 -4 0 -6 -6 -10 -12 -9 -34 1 -49 -4 -42 -14 4
-7 1 -10 -7 -7 -8 3 -29 -1 -46 -8 -18 -7 -33 -10 -33 -7 0 3 -7 0 -16 -8 -9
-7 -23 -14 -32 -15 -27 -2 -47 -8 -52 -16 -3 -4 -18 -8 -33 -10 -16 -3 -32 -8
-35 -14 -7 -9 -24 -15 -54 -17 -10 -1 -18 -5 -18 -10 0 -5 -6 -7 -14 -4 -8 3
-16 1 -18 -4 -2 -6 -12 -12 -23 -14 -11 -2 -21 -4 -22 -5 -2 -2 -7 -4 -13 -5
-5 -1 -12 -4 -15 -5 -3 -1 -9 -4 -15 -5 -5 -1 -11 -3 -12 -5 -2 -1 -12 -3 -22
-5 -10 -2 -22 -7 -25 -12 -3 -5 -13 -8 -21 -8 -8 1 -21 -3 -27 -8 -7 -5 -13
-6 -13 -1 0 5 -7 0 -15 -10 -11 -14 -15 -16 -15 -5 0 12 -2 12 -10 -1 -5 -8
-10 -11 -10 -6 0 5 -7 3 -15 -4 -8 -6 -19 -9 -25 -5 -5 3 -10 1 -10 -4 0 -6
-3 -10 -7 -10 -5 1 -10 0 -13 -1 -10 -3 -45 -11 -57 -12 -7 -1 -13 -5 -13 -10
0 -4 -13 -8 -30 -8 -16 0 -30 -5 -30 -11 0 -5 -4 -8 -8 -5 -5 3 -20 -1 -35 -9
-15 -8 -27 -11 -27 -7 0 3 -5 1 -11 -5 -6 -6 -18 -9 -25 -6 -8 3 -14 0 -14 -7
0 -7 -8 -10 -20 -7 -11 3 -20 2 -20 -3 0 -8 -39 -23 -54 -21 -4 1 -14 -3 -22
-10 -7 -6 -17 -8 -23 -5 -5 3 -11 2 -13 -3 -1 -6 -19 -13 -38 -16 -19 -3 -37
-9 -40 -13 -5 -7 -23 -13 -55 -17 -37 -5 -65 -17 -59 -26 3 -5 0 -9 -5 -9 -6
0 -11 5 -11 10 0 7 -6 7 -17 1 -26 -14 -57 -24 -65 -23 -5 1 -8 -2 -8 -7 0 -5
-8 -8 -17 -7 -10 2 -34 -4 -53 -12 -31 -13 -59 -20 -97 -24 -7 -1 -13 -4 -13
-7 0 -4 -12 -8 -26 -9 -15 -1 -33 -7 -40 -13 -7 -6 -18 -8 -24 -4 -5 3 -10 2
-10 -2 0 -5 -12 -10 -27 -11 -15 -1 -29 -6 -32 -11 -3 -4 -14 -7 -23 -5 -10 1
-18 -1 -18 -5 0 -4 -6 -8 -12 -9 -32 -3 -50 -10 -59 -23 -7 -12 -9 -12 -9 1 0
9 -3 11 -8 5 -4 -6 -17 -10 -29 -9 -13 1 -23 -2 -23 -6 0 -8 -54 -23 -82 -23
-10 0 -18 -3 -18 -7 0 -5 -21 -13 -47 -19 -79 -19 -82 -19 -99 -29 -9 -5 -26
-7 -37 -4 -13 3 -18 1 -13 -6 4 -7 -13 -13 -49 -17 -31 -4 -63 -14 -71 -22
-10 -11 -14 -11 -14 -2 0 10 -3 10 -12 1 -7 -7 -25 -12 -41 -12 -15 0 -26 -4
-23 -8 2 -4 -3 -9 -12 -10 -9 -1 -26 -4 -37 -6 -11 -2 -30 -5 -43 -5 -13 -1
-21 -5 -17 -10 3 -6 -4 -8 -15 -6 -11 2 -20 0 -20 -5 0 -4 -8 -7 -17 -5 -10 1
-23 -1 -28 -6 -6 -4 -23 -10 -38 -13 -15 -3 -39 -8 -54 -11 -14 -3 -33 -10
-42 -14 -9 -5 -26 -7 -38 -6 -13 1 -23 -2 -23 -6 0 -4 -9 -6 -20 -4 -11 2 -20
0 -20 -4 0 -8 -72 -26 -97 -24 -7 0 -13 -3 -13 -8 0 -5 -3 -8 -7 -7 -5 1 -28
-2 -53 -7 -25 -5 -48 -8 -52 -7 -5 1 -8 -2 -8 -7 0 -8 -56 -20 -102 -22 -10 0
-18 -4 -18 -9 0 -5 -8 -7 -17 -6 -10 2 -29 -1 -43 -7 -14 -5 -33 -9 -42 -8
-10 1 -18 -2 -18 -8 0 -5 -12 -10 -27 -10 -29 0 -68 -7 -81 -14 -4 -3 -23 -8
-42 -11 -63 -10 -93 -17 -101 -21 -6 -5 -60 -14 -103 -19 -11 -1 -30 -7 -41
-13 -11 -6 -30 -9 -42 -7 -13 2 -23 0 -23 -4 0 -4 -12 -7 -27 -6 -16 1 -33 -2
-39 -7 -9 -8 -75 -19 -131 -23 -13 0 -23 -4 -23 -8 0 -5 -3 -7 -7 -6 -5 1 -33
-1 -63 -6 -30 -4 -57 -7 -60 -7 -3 0 -15 -7 -27 -15 -13 -8 -23 -11 -23 -6 0
8 -31 8 -70 -1 -32 -8 -85 -17 -135 -22 -22 -3 -51 -8 -65 -11 -38 -10 -61
-14 -107 -17 -23 -2 -45 -6 -49 -10 -4 -4 -14 -1 -22 6 -13 9 -14 9 -8 0 5
-10 -3 -13 -31 -14 -21 -1 -41 -1 -45 0 -5 0 -8 -3 -8 -7 0 -4 -27 -7 -60 -7
-33 1 -60 -2 -60 -6 0 -3 -10 -5 -22 -5 -13 1 -31 -2 -40 -6 -10 -5 -48 -10
-86 -11 -37 -2 -74 -7 -81 -12 -10 -6 -12 -4 -6 4 6 10 3 11 -11 3 -11 -5 -35
-9 -54 -9 -20 1 -41 -2 -48 -7 -7 -4 -16 -4 -22 -1 -5 3 -10 3 -10 -2 0 -4
-34 -7 -75 -7 -51 2 -75 -2 -75 -10 0 -6 -5 -4 -10 4 -5 8 -10 11 -10 5 0 -6
-30 -10 -71 -10 -39 0 -73 -3 -75 -6 -2 -4 -55 -8 -116 -9 -211 -4 -253 -6
-265 -13 -6 -4 -13 -2 -15 4 -3 9 -10 9 -27 -1 -19 -10 -22 -10 -15 2 6 11 5
11 -8 0 -10 -8 -19 -9 -22 -3 -7 10 -24 10 -43 -2 -6 -4 -15 -2 -19 4 -4 8 -9
7 -15 -2 -7 -12 -9 -12 -9 0 0 11 -3 11 -15 1 -11 -9 -15 -9 -15 -1 0 8 -5 9
-19 2 -10 -6 -21 -7 -25 -4 -3 4 -57 8 -118 11 -62 2 -115 7 -118 10 -3 4 -25
8 -50 10 -114 6 -149 10 -161 18 -7 4 -27 9 -44 10 -16 1 -31 3 -32 3 -2 1 -6
2 -10 2 -5 1 -19 6 -33 11 -28 11 -59 19 -77 20 -7 1 -13 5 -13 10 0 5 -4 7
-9 3 -5 -3 -12 -1 -16 5 -4 6 -11 8 -16 5 -5 -4 -9 -1 -9 4 0 6 -11 11 -25 11
-14 0 -25 5 -25 10 0 6 -9 10 -20 10 -11 0 -20 5 -20 10 0 6 -7 10 -15 10 -8
0 -15 5 -15 11 0 5 -4 8 -9 5 -5 -3 -11 1 -15 9 -3 8 -13 15 -21 15 -9 0 -13
5 -10 10 3 5 0 10 -7 10 -14 0 -44 39 -40 53 1 4 -2 7 -7 7 -25 0 -34 156 -9
171 8 6 9 9 1 9 -9 0 -11 19 -3 40 1 3 3 10 5 15 1 6 3 12 4 15 1 3 4 16 7 29
2 14 9 30 15 38 6 7 8 13 4 13 -4 0 -2 7 5 15 7 8 9 15 5 15 -4 0 -2 6 4 13 6
8 8 17 4 20 -3 4 -1 7 5 7 7 0 12 6 12 13 0 7 9 29 20 50 11 20 17 37 14 37
-3 0 3 12 13 28 10 15 25 41 33 57 8 17 22 42 32 57 10 14 18 33 18 42 0 9 7
19 15 22 8 4 13 10 10 14 -2 4 4 15 15 25 11 10 20 22 20 28 0 5 9 22 21 38
11 16 17 29 13 29 -4 0 1 7 12 15 10 8 15 15 11 15 -7 0 0 10 31 45 6 7 12 17
12 21 0 4 16 26 35 50 19 23 35 47 35 53 0 6 5 11 10 11 6 0 10 9 10 19 0 11
5 23 12 27 7 5 8 2 3 -7 -4 -8 1 -5 12 6 11 11 19 22 17 24 -3 3 8 18 39 52 9
10 17 24 17 29 0 6 7 13 15 16 8 3 17 14 20 25 4 11 11 17 16 14 5 -4 9 1 9 9
0 9 5 16 10 16 6 0 10 7 10 16 0 8 5 12 10 9 6 -3 10 1 10 10 0 8 7 18 15 21
8 4 13 10 10 14 -3 4 2 11 11 14 8 3 12 10 9 16 -3 5 -1 10 5 10 6 0 18 7 26
15 9 8 13 15 9 15 -3 0 5 11 19 24 15 13 26 27 26 32 0 5 12 19 27 31 14 13
23 23 20 23 -4 0 1 8 11 18 9 11 20 17 24 15 5 -2 8 0 8 5 0 5 11 21 25 36 14
15 22 32 19 38 -4 7 -2 8 5 4 7 -4 15 2 20 16 6 13 10 19 10 14 1 -6 13 6 27
25 14 19 30 33 35 31 6 -1 8 2 4 8 -3 5 -1 10 6 10 7 0 9 3 6 7 -4 3 2 13 13
20 11 8 18 19 14 24 -3 5 -1 8 4 7 11 -3 92 80 92 94 0 5 4 6 10 3 5 -3 10 -2
10 4 0 6 18 29 40 53 22 24 40 46 40 51 0 4 8 7 17 7 9 0 14 3 10 6 -7 7 35
50 46 46 4 -1 7 4 7 12 0 8 7 17 16 20 8 3 12 10 9 16 -3 5 1 10 9 10 9 0 16
4 16 8 0 5 9 19 20 32 11 13 20 20 20 17 0 -4 8 1 19 11 10 9 18 19 18 22 -1
3 81 87 181 187 100 101 182 181 182 180 0 -2 38 34 84 79 46 46 86 80 90 77
3 -4 6 1 6 10 0 9 3 17 8 17 4 0 25 17 48 38 22 20 52 46 66 56 15 11 25 23
22 28 -3 4 0 8 7 8 6 0 22 10 34 23 29 29 115 101 128 106 5 2 26 20 47 40 55
52 90 81 101 81 5 0 9 5 9 12 0 6 3 9 6 5 4 -3 18 7 32 23 15 17 32 30 39 30
7 0 13 5 13 10 0 6 4 10 10 10 9 0 18 6 72 52 11 10 26 15 32 11 6 -3 8 -3 4
2 -8 8 52 55 70 55 6 0 12 7 16 15 5 15 53 40 69 37 4 -1 7 3 7 8 0 6 18 17
40 26 23 9 37 21 33 27 -4 6 -1 7 7 2 7 -4 15 -4 19 1 5 7 72 43 91 49 3 1 21
9 40 17 19 9 38 14 42 12 5 -3 8 0 8 6 0 6 5 8 10 5 6 -3 10 -1 10 5 0 6 4 9
8 6 4 -2 14 -1 22 5 18 11 41 11 56 1z"/>
</g>
</svg>
