<?xml version="1.0" standalone="no"?>
<!DOCTYPE svg PUBLIC "-//W3C//DTD SVG 20010904//EN"
 "http://www.w3.org/TR/2001/REC-SVG-20010904/DTD/svg10.dtd">
<svg version="1.0" xmlns="http://www.w3.org/2000/svg"
 width="1024.000000pt" height="1024.000000pt" viewBox="0 0 1024.000000 1024.000000"
 preserveAspectRatio="xMidYMid meet">
<metadata>
Created by potrace 1.14, written by Peter Selinger 2001-2017
</metadata>
<g transform="translate(0.000000,1024.000000) scale(0.100000,-0.100000)"
fill="#000000" stroke="none">
<path d="M3495 7312 c-16 -9 -32 -20 -35 -23 -5 -6 -30 -16 -43 -17 -4 -1 -15
-8 -23 -17 -9 -8 -20 -12 -26 -9 -7 4 -8 2 -4 -4 4 -7 -3 -14 -19 -18 -14 -3
-25 -10 -25 -16 0 -5 -4 -7 -9 -4 -5 3 -21 -6 -35 -19 -15 -14 -34 -25 -42
-25 -9 0 -22 -7 -31 -15 -8 -8 -19 -13 -24 -10 -5 4 -9 2 -9 -4 0 -6 -12 -14
-27 -17 -15 -4 -34 -13 -41 -21 -8 -7 -18 -11 -23 -8 -5 4 -9 -1 -9 -9 0 -9
-3 -15 -7 -14 -5 1 -18 -3 -29 -10 -12 -6 -23 -10 -25 -9 -2 1 -3 0 -2 -2 2
-4 -66 -41 -81 -44 -5 -1 -17 -8 -25 -15 -9 -7 -18 -11 -21 -10 -3 2 -22 -8
-42 -20 -21 -13 -38 -21 -38 -18 0 3 -9 -3 -20 -14 -12 -12 -25 -18 -30 -15
-5 3 -11 1 -15 -5 -9 -15 -82 -50 -89 -43 -3 4 -6 1 -6 -5 0 -12 -78 -49 -92
-44 -5 1 -8 -5 -8 -13 0 -8 -5 -14 -11 -12 -6 1 -13 -7 -15 -18 -7 -36 -6
-3147 1 -3153 12 -12 1029 -9 1041 2 11 10 11 43 0 54 -3 2 -1 13 5 23 5 11 6
19 1 19 -5 0 -9 7 -9 15 0 8 4 15 8 15 4 0 4 12 0 28 -8 33 -7 94 3 110 4 7 3
12 -1 12 -5 0 -9 9 -9 20 0 11 4 20 9 20 4 0 5 6 1 12 -10 16 -13 48 -4 48 4
0 7 7 7 15 0 8 -3 15 -6 15 -8 0 -6 78 2 86 3 3 2 17 -4 31 -12 31 -11 36 2
27 8 -4 8 -1 2 12 -10 21 -10 55 1 73 4 6 3 11 -1 11 -9 0 -8 103 2 128 2 7 1
11 -4 8 -10 -6 -8 65 3 82 4 7 3 12 -2 12 -4 0 -7 19 -5 43 2 23 4 47 3 52 -5
109 -3 468 3 472 4 2 4 9 1 15 -10 16 -11 269 -1 275 4 2 4 10 0 16 -13 20
-12 41 0 49 7 4 8 8 2 8 -12 0 -13 159 -1 178 4 7 4 12 -1 12 -6 0 -8 113 -2
185 1 14 -9 56 -24 101 -8 27 -12 93 -10 214 2 96 3 182 3 190 0 8 -1 210 -2
448 -2 237 -1 432 2 432 3 0 5 24 4 53 0 28 3 55 8 58 4 3 2 13 -5 22 -11 15
-14 15 -42 -1z"/>
<path d="M6837 7307 c4 -7 0 -8 -13 -3 -10 4 -15 4 -11 0 9 -10 -23 -45 -34
-38 -5 3 -9 -1 -9 -10 0 -20 -59 -78 -72 -70 -6 4 -8 3 -5 -3 8 -13 -31 -55
-44 -47 -5 3 -9 2 -8 -3 4 -21 -2 -33 -16 -33 -8 0 -15 -4 -15 -10 0 -12 -36
-50 -47 -50 -5 0 -16 -14 -25 -31 -10 -17 -22 -27 -28 -24 -5 3 -10 2 -10 -2
0 -18 -108 -120 -122 -115 -5 1 -8 -4 -8 -10 0 -7 -18 -30 -40 -50 -22 -21
-37 -38 -33 -38 11 0 -41 -35 -52 -35 -5 0 -9 -9 -7 -19 2 -10 -1 -15 -7 -12
-5 4 -12 -3 -16 -14 -4 -11 -10 -18 -15 -15 -5 3 -11 -4 -15 -15 -3 -11 -9
-19 -13 -18 -4 2 -25 -17 -48 -40 -22 -23 -44 -39 -49 -34 -4 4 -5 -1 -2 -10
4 -11 2 -18 -6 -18 -7 0 -19 -9 -27 -19 -7 -11 -18 -17 -24 -14 -5 4 -7 -1 -3
-10 6 -16 -3 -22 -26 -18 -5 1 -6 -2 -3 -7 7 -11 -48 -65 -57 -55 -4 3 -7 -1
-7 -11 0 -9 -4 -14 -10 -11 -6 3 -10 -4 -10 -16 0 -12 -3 -19 -7 -16 -7 8 -53
-39 -53 -54 0 -6 -4 -8 -9 -4 -6 3 -15 -4 -21 -15 -6 -11 -15 -18 -21 -15 -8
6 -13 -8 -10 -27 0 -5 -4 -8 -9 -8 -15 0 -115 -101 -112 -112 2 -6 -4 -8 -12
-5 -9 4 -15 3 -13 -1 3 -12 -50 -62 -58 -54 -4 4 -5 2 -3 -4 1 -5 -23 -36 -54
-67 -32 -31 -58 -53 -58 -49 0 4 -8 -5 -18 -21 -10 -15 -21 -25 -24 -21 -4 3
-9 -4 -13 -15 -3 -12 -11 -19 -16 -16 -5 4 -9 2 -9 -4 0 -15 -52 -61 -62 -55
-4 3 -5 -1 -2 -9 3 -8 0 -18 -7 -23 -8 -5 -10 -3 -4 7 5 8 -13 -7 -39 -33 -26
-27 -51 -48 -57 -48 -6 0 -8 -4 -5 -9 3 -5 -6 -8 -21 -8 -28 0 -57 20 -45 31
3 4 -2 4 -12 0 -14 -5 -17 -4 -12 4 4 7 2 12 -4 12 -7 0 -10 7 -6 15 3 8 2 14
-2 14 -20 -3 -33 2 -27 11 3 6 -1 10 -10 10 -9 0 -13 5 -10 10 3 6 -1 10 -9
10 -14 0 -20 12 -17 33 0 4 -7 7 -16 7 -10 0 -28 13 -40 28 -42 53 -82 92 -93
92 -6 0 -8 5 -5 10 3 6 -1 10 -9 10 -8 0 -17 9 -21 20 -3 11 -9 19 -13 19 -20
-3 -25 2 -12 11 12 8 11 10 -7 10 -13 0 -23 6 -23 13 0 6 -14 23 -32 37 -49
39 -59 51 -52 62 4 6 2 8 -4 4 -6 -3 -19 5 -30 19 -11 13 -23 21 -27 17 -5 -4
-6 1 -2 10 3 10 0 19 -9 22 -10 4 -13 2 -8 -7 4 -6 -2 -3 -13 8 -11 11 -19 23
-16 28 2 4 -4 7 -14 7 -15 0 -16 2 -3 10 12 8 11 10 -7 10 -13 0 -23 4 -23 8
0 12 -100 112 -111 112 -6 0 -7 5 -4 10 3 6 -1 10 -9 10 -9 0 -16 7 -16 16 0
8 -4 12 -10 9 -10 -6 -15 9 -10 30 1 6 -2 7 -6 3 -4 -4 -17 3 -29 17 -13 13
-26 21 -31 17 -4 -4 -4 1 -1 10 3 10 3 17 -1 15 -4 -1 -9 3 -11 8 -2 6 -17 16
-33 24 -16 8 -26 16 -23 19 3 3 -4 12 -15 19 -11 8 -18 19 -14 24 3 5 1 8 -4
7 -12 -3 -92 69 -92 82 0 5 -9 12 -20 15 -11 4 -18 11 -15 16 4 5 -1 9 -10 9
-9 0 -13 5 -10 10 3 6 2 10 -4 10 -14 0 -61 48 -61 62 0 6 -3 9 -6 6 -7 -8
-51 35 -47 45 2 4 -3 7 -11 7 -9 0 -16 8 -16 17 0 9 -3 14 -6 10 -10 -9 -125
114 -117 126 3 6 1 7 -5 3 -10 -6 -72 51 -72 67 0 5 -4 6 -9 2 -5 -3 -12 4
-16 15 -3 11 -13 20 -21 20 -8 0 -12 5 -9 10 3 6 -1 10 -9 10 -9 0 -16 5 -16
12 0 6 -3 8 -7 5 -5 -6 -6 -117 -3 -359 0 -7 -1 -50 -2 -96 -2 -45 0 -82 4
-82 4 0 5 -7 2 -15 -11 -28 -10 -763 1 -762 6 1 9 -5 7 -13 -2 -8 0 -12 3 -8
4 4 39 -24 77 -62 39 -39 75 -70 80 -70 5 0 6 -5 3 -11 -4 -6 2 -13 14 -16 12
-3 21 -9 21 -13 0 -12 118 -130 129 -130 6 0 11 -7 11 -15 0 -8 4 -15 9 -15
13 0 71 -59 71 -72 0 -6 3 -9 6 -5 8 7 60 -54 56 -66 -1 -5 1 -6 6 -3 5 3 14
-4 22 -14 8 -10 17 -17 22 -14 4 3 8 -2 8 -11 0 -9 3 -14 8 -12 9 6 33 -19 25
-27 -4 -3 -1 -6 6 -6 16 0 41 -25 41 -40 0 -6 4 -9 9 -5 5 3 12 -4 16 -15 3
-11 11 -20 16 -20 6 0 7 -5 4 -10 -4 -6 -2 -9 3 -8 5 2 26 -14 46 -34 20 -20
36 -35 36 -32 0 3 10 -4 22 -16 12 -11 25 -20 30 -20 4 0 7 -3 6 -7 -1 -5 21
-32 50 -61 28 -29 52 -58 52 -63 0 -6 5 -7 11 -4 6 4 13 -2 16 -14 3 -12 9
-21 13 -21 12 0 50 -37 45 -44 -3 -3 -2 -4 2 -1 9 7 43 -25 43 -42 0 -7 6 -12
13 -10 6 1 11 -4 10 -10 -2 -7 6 -13 17 -13 11 0 19 -3 19 -7 -3 -21 2 -33 12
-28 6 4 13 -2 15 -12 3 -11 19 -27 35 -37 16 -10 27 -21 24 -26 -3 -5 4 -11
15 -15 11 -3 20 -14 20 -22 0 -9 3 -13 6 -10 7 7 44 -30 44 -45 0 -4 6 -7 13
-6 6 2 11 -3 9 -10 -1 -6 2 -11 7 -10 5 2 34 -23 65 -54 30 -32 54 -58 51 -58
-2 0 8 -13 23 -28 15 -15 30 -26 35 -24 4 2 7 -2 7 -7 0 -6 0 -14 1 -18 1 -12
41 -31 58 -28 9 2 20 4 24 4 5 1 5 6 2 11 -3 6 -1 10 5 10 6 0 8 4 5 10 -3 5
5 15 19 22 14 6 26 15 26 20 0 10 40 51 40 41 0 -5 5 0 11 10 6 9 15 15 20 11
5 -3 8 0 7 8 -2 7 2 12 9 11 7 -2 10 3 7 11 -3 8 8 19 28 29 18 9 29 17 25 17
-5 0 5 14 22 31 17 17 31 35 31 41 0 6 3 8 6 5 4 -3 19 7 35 24 15 16 30 30
33 29 4 0 7 3 9 7 4 13 48 53 58 53 6 0 8 4 4 9 -3 5 4 12 15 16 11 3 20 10
20 14 0 4 8 17 18 29 15 17 21 19 32 9 9 -8 11 -8 6 0 -9 16 4 43 21 43 8 0
12 3 10 8 -2 4 7 17 20 29 13 12 23 20 23 18 0 -3 8 3 18 13 10 9 16 23 14 31
-3 8 -1 12 5 8 5 -3 16 5 23 18 7 14 22 25 32 25 10 0 17 4 16 8 -5 14 52 63
64 56 6 -4 8 -3 5 2 -3 5 8 25 24 43 16 19 29 31 29 27 0 -3 8 2 18 12 11 9
17 20 15 24 -2 4 6 9 17 13 11 3 19 10 17 14 -3 9 72 81 85 81 6 0 8 7 4 15
-3 9 0 15 10 15 8 0 17 7 20 15 4 8 10 12 15 9 5 -3 9 2 9 10 0 15 12 21 33
17 5 -1 6 3 2 9 -7 12 19 42 29 33 3 -4 6 -1 6 6 0 13 70 86 71 74 0 -4 4 2 9
15 5 12 16 22 25 22 8 0 15 7 15 15 0 8 12 21 28 29 15 8 23 15 18 16 -15 0
26 40 42 40 9 0 13 3 9 6 -3 3 13 25 37 48 23 22 51 53 60 69 10 15 25 27 34
27 8 0 13 3 9 6 -9 9 25 44 36 37 6 -3 7 -1 3 5 -3 6 0 14 7 19 7 4 21 19 30
33 9 13 17 20 17 15 0 -6 4 -5 8 2 5 8 12 8 26 -3 11 -8 15 -14 8 -14 -8 0 -9
-7 -2 -26 7 -16 7 -23 0 -19 -5 3 -7 0 -4 -8 10 -26 9 -267 -1 -271 -7 -3 -7
-5 0 -5 8 -1 13 -222 5 -241 -1 -3 -1 -9 0 -15 2 -7 1 -695 -1 -770 0 -5 1
-40 3 -77 1 -37 -1 -70 -4 -74 -4 -3 -4 -12 -1 -20 8 -21 9 -204 1 -204 -4 0
-5 -6 -2 -14 9 -23 10 -226 1 -226 -5 0 -5 -5 -2 -10 8 -13 11 -218 3 -225 -3
-4 -2 -20 2 -36 5 -16 5 -29 1 -29 -17 0 -6 -29 13 -37 16 -8 961 -11 1025 -4
11 1 11 4 1 16 -10 12 -10 15 1 15 11 0 11 2 0 9 -12 8 -12 12 -2 25 8 9 10
16 5 16 -5 0 -9 13 -10 30 -1 16 3 27 7 24 5 -3 4 7 -2 23 -6 15 -11 28 -11
28 -1 0 4 9 10 21 8 16 8 24 -1 34 -9 10 -9 14 1 17 6 3 10 9 6 14 -10 18 -13
49 -3 54 5 4 5 15 -2 28 -9 16 -9 22 0 25 6 2 8 8 5 14 -11 17 -10 158 1 158
7 0 7 3 0 8 -12 8 -14 67 -3 78 4 4 3 13 -3 20 -7 9 -7 19 0 32 7 13 7 22 -1
30 -8 8 -8 15 0 25 7 8 9 17 5 21 -10 9 -10 507 0 513 4 2 4 10 0 16 -10 16
-10 507 0 507 4 0 5 6 0 13 -11 18 -10 337 2 337 7 0 7 3 0 8 -14 10 -16 84
-2 75 6 -4 7 -1 2 8 -12 18 -13 90 -3 111 5 10 4 20 -3 24 -8 4 -7 9 2 15 8 5
9 9 4 9 -13 0 -13 223 0 232 7 5 6 8 0 8 -11 0 -13 46 -2 56 3 4 3 14 -2 23
-5 9 -7 26 -5 38 2 13 -7 33 -26 53 -17 18 -30 30 -30 26 0 -3 -21 15 -46 39
-25 25 -51 45 -57 45 -5 0 -8 3 -4 6 6 7 -60 74 -74 74 -8 0 -13 15 -10 33 0
4 -8 7 -19 7 -11 0 -20 6 -20 14 0 8 -9 18 -20 21 -11 3 -20 13 -20 21 0 8 -3
14 -7 14 -13 0 -108 91 -105 101 1 5 -3 9 -9 9 -6 0 -17 6 -25 14 -8 8 -14 19
-14 25 0 6 -3 10 -7 10 -17 -3 -33 1 -32 9 4 22 -3 31 -18 25 -11 -4 -14 -3
-9 5 4 7 2 12 -4 12 -15 0 -41 26 -33 34 4 3 2 6 -4 6 -14 0 -102 87 -95 94 3
3 -2 6 -11 6 -8 0 -19 9 -22 20 -4 11 -11 18 -16 15 -5 -4 -14 5 -21 19 -6 14
-17 26 -24 26 -6 0 -15 7 -18 16 -3 8 -10 12 -16 9 -5 -3 -10 1 -10 10 0 9 -4
14 -8 11 -5 -3 -16 6 -26 20 -32 42 -74 82 -80 76 -3 -3 -6 -1 -6 5 0 6 -9 13
-20 16 -13 3 -18 1 -13 -6z"/>
</g>
</svg>
