<?xml version="1.0" standalone="no"?>
<!DOCTYPE svg PUBLIC "-//W3C//DTD SVG 20010904//EN"
 "http://www.w3.org/TR/2001/REC-SVG-20010904/DTD/svg10.dtd">
<svg version="1.0" xmlns="http://www.w3.org/2000/svg"
 width="512.000000pt" height="512.000000pt" viewBox="0 0 512.000000 512.000000"
 preserveAspectRatio="xMidYMid meet">
<metadata>
Created by potrace 1.14, written by Peter Selinger 2001-2017
</metadata>
<g transform="translate(0.000000,512.000000) scale(0.100000,-0.100000)"
fill="#000000" stroke="none">
<path d="M1977 4072 c-14 -15 -17 -40 -17 -119 l0 -100 128 -106 c122 -101
296 -272 412 -405 l56 -63 46 48 c25 26 78 84 117 128 88 98 216 216 344 319
l97 78 0 92 c0 53 -6 101 -13 116 -18 36 -60 38 -102 6 -18 -14 -37 -26 -42
-26 -14 0 -156 -149 -205 -215 -72 -97 -191 -315 -227 -417 l-12 -33 -38 90
c-54 128 -74 166 -157 292 -68 104 -224 283 -246 283 -5 0 -24 11 -42 25 -39
30 -76 32 -99 7z"/>
<path d="M1253 4039 c-9 -9 -13 -47 -13 -115 l0 -103 48 -6 c251 -36 646 -181
923 -339 l64 -36 -119 116 c-207 202 -460 368 -700 458 -79 30 -186 43 -203
25z"/>
<path d="M3749 4040 c-110 -19 -357 -143 -534 -269 -92 -66 -299 -244 -355
-307 l-25 -27 35 20 c78 47 322 164 430 206 167 65 410 135 533 153 l49 7 -4
104 c-4 130 -7 133 -129 113z"/>
<path d="M1165 3611 c-46 -21 -79 -54 -94 -94 -8 -19 -11 -322 -11 -953 0
-997 -2 -951 52 -1000 38 -36 79 -51 163 -64 339 -50 629 -138 955 -290 253
-118 280 -125 318 -89 l22 20 27 -20 c14 -12 33 -21 42 -21 23 0 135 46 211
87 366 195 533 251 910 304 176 24 216 41 267 107 l33 44 -2 932 -3 933 -27
36 c-16 19 -53 48 -83 62 -52 26 -61 27 -138 20 -184 -15 -410 -66 -584 -131
-121 -44 -387 -174 -468 -228 -33 -21 -90 -66 -127 -98 l-67 -59 -63 52 c-70
59 -220 159 -237 159 -6 0 -52 20 -101 45 -224 112 -517 204 -800 250 -121 19
-146 19 -195 -4z m276 -202 c68 -12 167 -32 219 -46 52 -14 120 -31 150 -38
152 -34 408 -171 570 -304 l90 -74 0 -279 0 -278 90 0 90 0 0 279 0 279 68 57
c139 117 391 269 502 303 19 6 78 24 130 41 138 43 290 72 413 78 l107 6 0
-880 0 -880 -72 -7 c-355 -32 -798 -182 -1095 -372 l-53 -34 0 285 0 285 -90
0 -90 0 0 -281 0 -281 -32 22 c-48 32 -277 142 -393 188 -219 88 -506 160
-747 187 l-58 6 0 880 0 879 39 0 c21 0 94 -9 162 -21z"/>
</g>
</svg>
