<?xml version="1.0" standalone="no"?>
<!DOCTYPE svg PUBLIC "-//W3C//DTD SVG 20010904//EN"
 "http://www.w3.org/TR/2001/REC-SVG-20010904/DTD/svg10.dtd">
<svg version="1.0" xmlns="http://www.w3.org/2000/svg"
 width="1288.000000pt" height="1288.000000pt" viewBox="0 0 1288.000000 1288.000000"
 preserveAspectRatio="xMidYMid meet">

<g transform="translate(0.000000,1288.000000) scale(0.100000,-0.100000)"
fill="#000000" stroke="none">
<path d="M4329 6146 c-3 -3 -36 -10 -74 -16 -280 -44 -678 -245 -1160 -586
-143 -101 -435 -337 -659 -533 -381 -333 -925 -886 -1246 -1267 -284 -336
-494 -617 -617 -824 -79 -134 -99 -172 -148 -287 -26 -59 -50 -117 -55 -128
-80 -189 -134 -529 -112 -709 18 -152 40 -227 105 -366 110 -236 312 -428 591
-561 171 -81 272 -113 536 -169 167 -36 299 -44 670 -45 354 0 516 8 745 37
44 5 130 16 190 23 158 19 260 34 343 51 40 8 86 14 103 14 16 0 58 6 92 14
34 8 105 21 157 31 125 22 313 60 425 85 50 11 119 27 155 34 36 8 85 19 110
25 25 6 140 34 255 62 194 47 511 130 630 165 28 8 73 21 100 29 28 8 89 26
138 40 174 50 264 76 357 106 52 16 147 46 210 66 136 42 526 170 555 182 62
26 131 51 139 51 4 0 22 6 39 14 18 8 66 26 107 39 104 35 343 123 520 192 19
8 64 25 100 38 241 92 307 118 322 127 10 6 35 16 55 24 89 32 255 101 345
143 53 25 103 43 111 40 17 -6 22 -32 43 -200 30 -229 62 -436 93 -592 30
-149 75 -316 86 -318 10 -2 18 45 47 253 9 66 13 228 13 537 0 282 4 445 10
451 6 5 26 15 45 22 19 8 76 33 125 56 50 23 146 67 215 99 157 72 796 388
870 431 30 17 93 51 140 76 399 212 1034 603 1276 787 12 9 32 23 43 31 66 45
227 169 267 205 6 6 55 46 109 90 341 278 617 594 749 858 107 215 143 358
133 517 -12 173 -106 319 -258 400 l-60 32 16 -39 c9 -21 23 -48 31 -61 9 -13
17 -31 19 -40 2 -9 16 -51 31 -92 35 -98 44 -245 20 -337 -14 -55 -54 -148
-97 -223 -51 -90 -249 -305 -439 -475 -67 -61 -294 -234 -385 -295 -100 -67
-304 -201 -330 -217 -56 -34 -297 -176 -322 -189 -15 -8 -46 -25 -68 -38 -37
-21 -109 -60 -293 -158 -95 -51 -341 -173 -468 -233 -85 -40 -164 -77 -474
-217 -69 -31 -129 -57 -210 -91 -19 -9 -129 -54 -245 -102 -115 -47 -223 -92
-240 -100 -16 -7 -79 -33 -138 -56 -124 -50 -126 -49 -127 41 -1 30 -5 89 -10
130 -34 297 -41 357 -45 370 -3 9 -11 63 -19 120 -26 186 -40 259 -78 420 -6
25 -14 63 -18 85 -23 124 -147 538 -186 622 -8 18 -21 47 -29 65 -150 342
-297 543 -496 679 -220 149 -490 173 -774 68 -168 -62 -357 -167 -556 -311
-162 -117 -247 -194 -709 -652 -395 -391 -570 -556 -588 -556 -29 0 -44 244
-30 475 6 105 12 343 12 530 1 354 -1 376 -47 530 -86 291 -349 475 -679 475
-58 0 -107 -2 -109 -4z m88 -764 c21 -13 31 -212 21 -387 -11 -181 -6 -507 11
-700 16 -188 58 -391 100 -490 48 -110 92 -185 145 -242 176 -193 380 -227
624 -104 117 58 175 96 286 187 81 66 327 308 451 444 32 36 86 94 120 130 33
36 92 101 130 145 176 200 408 434 550 554 165 141 202 164 394 255 13 6 72
11 130 11 118 0 126 -3 236 -84 92 -68 206 -223 282 -381 112 -236 176 -413
258 -715 9 -33 23 -80 30 -105 7 -25 17 -63 20 -85 4 -22 13 -60 20 -85 7 -25
18 -70 24 -100 6 -30 18 -86 27 -125 21 -96 41 -203 59 -309 8 -49 19 -103 25
-119 5 -16 13 -64 16 -106 7 -82 4 -88 -61 -105 -24 -6 -147 -49 -300 -105
-60 -22 -126 -45 -145 -52 -19 -6 -50 -18 -68 -25 -18 -8 -37 -14 -43 -14 -6
0 -25 -6 -42 -14 -26 -11 -401 -137 -531 -179 -17 -5 -46 -16 -64 -23 -18 -8
-40 -14 -48 -14 -9 0 -30 -6 -47 -14 -18 -7 -50 -18 -72 -23 -22 -6 -150 -44
-285 -85 -135 -42 -254 -78 -265 -81 -11 -3 -51 -15 -90 -27 -38 -12 -83 -25
-100 -30 -27 -7 -159 -44 -435 -122 -170 -48 -410 -109 -670 -172 -270 -64
-375 -88 -440 -101 -36 -7 -121 -24 -190 -38 -167 -34 -315 -60 -550 -97 -107
-17 -235 -37 -285 -45 -124 -20 -243 -35 -355 -45 -52 -5 -131 -14 -175 -19
-171 -22 -552 -43 -800 -44 -385 -2 -704 38 -862 109 -17 8 -36 14 -41 14 -6
0 -42 18 -80 40 -142 82 -178 158 -149 317 20 114 44 180 118 332 101 206 253
447 409 647 410 527 1096 1258 1612 1717 189 168 458 383 596 476 118 79 300
178 372 202 14 4 43 15 65 23 47 18 47 18 62 8z"/>
</g>
</svg>
